<svg width="173" height="30" viewBox="0 0 173 30" fill="none" xmlns="http://www.w3.org/2000/svg">
<g clip-path="url(#clip0_11_641)">
<path d="M47.4138 21.0113V10.6913C47.4138 8.72001 47.8475 7.16625 48.7149 6.02876C49.5834 4.89126 50.67 4.3225 51.9734 4.3225C54.5305 4.3225 55.809 6.29376 55.809 10.2363V21.0113H60.2905V9.03625C60.2905 6.01751 59.698 3.76126 58.5095 2.26501C57.3222 0.768755 55.6266 0.0212553 53.4214 0.0212553C51.9734 0.0212553 50.6487 0.313755 49.4495 0.900005C48.2571 1.47924 47.216 2.35567 46.4161 3.45376H46.3379C45.1767 1.16501 43.2334 0.0212553 40.5056 0.0212553C39.3575 0.0212553 38.2519 0.292505 37.189 0.837505C36.1088 1.3966 35.1572 2.19776 34.4009 3.18501H34.3416V0.331255H29.8602V20.99H34.3416V10.6913C34.3416 8.72001 34.7824 7.16625 35.6628 6.02876C36.5432 4.89126 37.6689 4.3225 39.0387 4.3225C41.6337 4.3225 42.9324 6.29376 42.9324 10.2363V21.0113H47.4138ZM72.417 21.3213C75.0784 21.3213 77.1532 20.2875 78.6403 18.2188H78.6995V20.99H82.9843V0.331255H78.5028V2.81251H78.4246C76.9375 0.951255 74.9232 0.0212553 72.3779 0.0212553C71.1198 0.0118298 69.8732 0.27488 68.7153 0.794126C67.5575 1.31337 66.5129 2.07777 65.6463 3.04001C64.811 3.97751 64.1533 5.11501 63.6699 6.45251C63.181 7.82697 62.9356 9.2845 62.9459 10.7525C62.9459 12.325 63.1864 13.7725 63.6687 15.0963C64.1521 16.42 64.811 17.5363 65.6463 18.4463C66.496 19.3668 67.5193 20.089 68.6501 20.5663C69.8472 21.0756 71.1263 21.3321 72.417 21.3213ZM73.1221 17.02C71.4644 17.02 70.1147 16.4375 69.0708 15.2725C68.0281 14.1075 67.5055 12.6075 67.5055 10.7738C67.5055 8.83001 68.0435 7.26876 69.1194 6.09001C70.1965 4.91126 71.5366 4.3225 73.141 4.3225C74.7324 4.3225 76.0536 4.93876 77.1046 6.17251C78.1545 7.40751 78.6806 8.94126 78.6806 10.7738C78.6806 12.6075 78.1414 14.1075 77.0655 15.2725C75.9884 16.4375 74.6743 17.02 73.1221 17.02ZM105.248 21.0113V8.83001C105.248 5.83876 104.613 3.62251 103.34 2.18126C102.07 0.741255 100.31 0.0212553 98.0673 0.0212553C96.8195 0.0141242 95.5847 0.289042 94.4461 0.827505C93.3134 1.36362 92.3101 2.16266 91.511 3.16501H91.4518V0.330005H86.9704V20.9888H91.4518V10.6088C91.4518 8.62376 91.9115 7.08001 92.831 5.97626C93.7517 4.87376 94.9805 4.3225 96.5197 4.3225C97.2248 4.3225 97.8279 4.41876 98.3303 4.61126C98.8327 4.80501 99.2735 5.11876 99.6515 5.55251C100.031 5.9875 100.31 6.57625 100.493 7.32126C100.675 8.06501 100.767 8.97501 100.767 10.05V21.0113H105.248ZM117.356 21.3213C120.017 21.3213 122.091 20.2875 123.579 18.2188H123.638V20.99H127.923V0.331255H123.441V2.81251H123.363C121.876 0.951255 119.861 0.0212553 117.316 0.0212553C116.058 0.0116584 114.811 0.274625 113.653 0.793877C112.495 1.31313 111.45 2.07761 110.584 3.04001C109.749 3.97751 109.091 5.11501 108.607 6.45251C108.119 7.82705 107.874 9.28457 107.884 10.7525C107.884 12.325 108.125 13.7725 108.607 15.0963C109.091 16.42 109.749 17.5363 110.584 18.4463C111.434 19.3669 112.457 20.0891 113.589 20.5663C114.785 21.0754 116.065 21.3319 117.356 21.3213ZM118.059 17.02C116.403 17.02 115.052 16.4375 114.009 15.2725C112.965 14.1075 112.443 12.6075 112.443 10.7738C112.443 8.83001 112.982 7.26876 114.058 6.09001C115.134 4.91126 116.475 4.3225 118.08 4.3225C119.671 4.3225 120.992 4.93876 122.042 6.17251C123.092 7.40751 123.618 8.94126 123.618 10.7738C123.618 12.6075 123.079 14.1075 122.003 15.2725C120.927 16.4375 119.612 17.02 118.059 17.02ZM140.656 29.6763C142.078 29.6763 143.351 29.5013 144.472 29.1488C145.594 28.7975 146.537 28.3075 147.3 27.68C148.067 27.0477 148.712 26.265 149.198 25.375C149.706 24.4485 150.073 23.4432 150.284 22.3963C150.506 21.3213 150.617 20.1425 150.617 18.86V0.331255H146.135V2.50251H146.057C145.254 1.6925 144.306 1.05935 143.269 0.640005C142.223 0.213797 141.111 -0.00323631 139.99 5.26412e-06C138.203 5.26412e-06 136.599 0.447505 135.177 1.34376C133.755 2.24001 132.648 3.485 131.859 5.07751C131.07 6.66876 130.675 8.45875 130.675 10.4438C130.675 12.4563 131.09 14.2413 131.918 15.8C132.747 17.3575 133.885 18.5538 135.333 19.3875C136.781 20.2213 138.412 20.6388 140.226 20.6388C142.651 20.6388 144.629 19.7975 146.155 18.1163H146.234V20.3075C146.234 21.77 145.724 22.9825 144.707 23.9475C143.688 24.9125 142.255 25.395 140.401 25.395C139.136 25.395 138.024 25.23 137.065 24.8988C136.106 24.5675 135 24.0513 133.748 23.3488L132.691 27.525C133.787 28.215 135.021 28.745 136.39 29.1175C137.76 29.49 139.182 29.6763 140.656 29.6763ZM140.812 16.2763C139.195 16.2763 137.861 15.7338 136.811 14.6513C135.76 13.57 135.235 12.1188 135.235 10.2988C135.235 8.54876 135.75 7.12126 136.781 6.01751C137.812 4.91501 139.156 4.36376 140.812 4.36376C142.391 4.36376 143.706 4.90751 144.756 5.99751C145.806 7.08626 146.332 8.50001 146.332 10.2363C146.332 11.9875 145.819 13.4313 144.795 14.5688C143.771 15.7063 142.443 16.2763 140.812 16.2763ZM163.428 21.3213C165.255 21.3213 166.863 20.97 168.252 20.2663C169.642 19.5638 170.779 18.6125 171.667 17.4125L168.536 14.58C167.31 16.2063 165.685 17.02 163.663 17.02C162.229 17.02 161.012 16.5988 160.013 15.7575C159.015 14.9175 158.373 13.7663 158.085 12.305H172.333C172.411 11.8088 172.45 11.18 172.45 10.4225C172.45 8.42376 172.065 6.63876 171.295 5.06626C170.548 3.51991 169.393 2.23452 167.969 1.36501C166.521 0.468755 164.85 0.0212553 162.959 0.0212553C161.663 0.0110176 160.379 0.27453 159.181 0.796255C158.008 1.31376 156.996 2.03376 156.148 2.95751C155.301 3.88126 154.635 5.005 154.152 6.32751C153.67 7.6525 153.428 9.09251 153.428 10.65C153.428 12.76 153.866 14.6313 154.739 16.265C155.613 17.8988 156.808 19.15 158.321 20.0188C159.834 20.8875 161.537 21.3213 163.428 21.3213ZM167.949 8.47875H158.165C158.477 7.15501 159.084 6.13126 159.983 5.40751C160.884 4.68376 161.954 4.3225 163.193 4.3225C164.446 4.3225 165.48 4.695 166.296 5.43876C167.111 6.18375 167.662 7.19626 167.949 8.47875Z" fill="#FAF8F8"/>
<path fill-rule="evenodd" clip-rule="evenodd" d="M3.30122 12.8575C5.12364 12.8575 6.60125 14.4562 6.60125 16.4287C6.60125 18.4 5.12364 20 3.30122 20C1.47761 20 0 18.4 0 16.4287C0 14.4562 1.47761 12.8575 3.30122 12.8575ZM3.30122 0C5.12364 0 6.60007 1.6 6.60007 3.57125C6.60007 5.54375 5.12246 7.1425 3.30003 7.1425C1.47761 7.1425 0 5.54375 0 3.57125C0 1.6 1.47761 0 3.30122 0ZM15.1837 0C17.0073 0 18.4849 1.6 18.4849 3.57125C18.4849 5.54375 17.0073 7.1425 15.1837 7.1425C13.3613 7.1425 11.8837 5.54375 11.8837 3.57125C11.8837 1.6 13.3613 0 15.1837 0Z" fill="#F3603C"/>
<path opacity="0.5" d="M15.1837 20.1425C17.0069 20.1425 18.4849 18.5436 18.4849 16.5713C18.4849 14.5989 17.0069 13 15.1837 13C13.3605 13 11.8824 14.5989 11.8824 16.5713C11.8824 18.5436 13.3605 20.1425 15.1837 20.1425Z" fill="#F3603C"/>
</g>
<defs>
<clipPath id="clip0_11_641">
<rect width="173" height="30" fill="white"/>
</clipPath>
</defs>
</svg>
