<svg aria-hidden="true" style="position: absolute; width: 0; height: 0; overflow: hidden;" version="1.1" xmlns="http://www.w3.org/2000/svg" xmlns:xlink="http://www.w3.org/1999/xlink">
<defs>
<symbol id="icon-icon-facebook" viewBox="0 0 32 32">
<path d="M30.234 0h-28.467c-0.976 0-1.766 0.79-1.766 1.766v28.469c0 0.974 0.79 1.765 1.766 1.765h15.328v-12.392h-4.173v-4.829h4.17v-3.563c0-4.133 2.525-6.384 6.213-6.384 1.766 0 3.283 0.131 3.726 0.19v4.32h-2.557c-2.006 0-2.394 0.955-2.394 2.352v3.085h4.782l-0.624 4.829h-4.16v12.392h8.157c0.973 0 1.763-0.79 1.763-1.766v-28.467c0.002-0.976-0.789-1.766-1.765-1.766z"></path>
</symbol>
<symbol id="icon-icon-instagram" viewBox="0 0 34 32">
<path d="M16.533 2.883c4.272 0 4.779 0.016 6.467 0.094 4.336 0.197 6.362 2.254 6.56 6.558 0.077 1.686 0.091 2.192 0.091 6.464 0 4.275-0.016 4.781-0.093 6.467-0.198 4.299-2.218 6.36-6.558 6.558-1.688 0.077-2.192 0.093-6.467 0.093-4.272 0-4.778-0.016-6.464-0.093-4.347-0.198-6.362-2.266-6.56-6.56-0.077-1.686-0.093-2.192-0.093-6.466 0-4.272 0.016-4.778 0.093-6.464 0.198-4.304 2.219-6.363 6.56-6.56 1.686-0.077 2.192-0.093 6.464-0.093zM16.533 0c-4.344 0-4.888 0.019-6.595 0.096-5.811 0.267-9.042 3.491-9.307 9.307-0.078 1.707-0.096 2.251-0.096 6.597s0.018 4.891 0.096 6.597c0.266 5.811 3.49 9.040 9.306 9.307 1.709 0.077 2.253 0.096 6.597 0.096 4.346 0 4.891-0.019 6.598-0.096 5.805-0.267 9.042-3.491 9.306-9.307 0.078-1.706 0.096-2.251 0.096-6.597s-0.018-4.89-0.096-6.595c-0.261-5.806-3.488-9.040-9.304-9.309-1.709-0.080-2.254-0.096-6.6-0.096zM16.533 7.784c-4.538 0-8.216 3.678-8.216 8.216s3.678 8.216 8.216 8.216v0c4.538 0 8.216-3.678 8.216-8.216s-3.678-8.216-8.216-8.216v0zM16.533 21.333c-2.945 0-5.333-2.388-5.333-5.333s2.388-5.333 5.333-5.333v0c2.945 0 5.333 2.388 5.333 5.333s-2.388 5.333-5.333 5.333v0zM25.075 5.541c-0 0-0.001 0-0.001 0-1.060 0-1.92 0.86-1.92 1.92s0.859 1.92 1.919 1.92h0c1.060 0 1.92-0.86 1.92-1.92s-0.86-1.92-1.92-1.92v0z"></path>
</symbol>
<symbol id="icon-icon-pinterest" viewBox="0 0 32 32">
<path  d="M16 0c-8.835 0-16 7.163-16 16 0 6.779 4.218 12.568 10.17 14.899-0.141-1.266-0.267-3.208 0.056-4.589 0.291-1.248 1.875-7.952 1.875-7.952s-0.478-0.96-0.478-2.378c0-2.224 1.29-3.885 2.896-3.885 1.363 0 2.022 1.024 2.022 2.253 0 1.373-0.872 3.424-1.325 5.328-0.378 1.592 0.8 2.891 2.368 2.891 2.845 0 5.030-2.998 5.030-7.328 0-3.829-2.752-6.509-6.683-6.509-4.552 0-7.224 3.416-7.224 6.944 0 1.374 0.53 2.85 1.192 3.65 0.080 0.086 0.129 0.201 0.129 0.328 0 0.047-0.007 0.093-0.020 0.137l0.001-0.003-0.445 1.813c-0.070 0.293-0.232 0.357-0.536 0.214-1.998-0.93-3.248-3.851-3.248-6.198 0-5.046 3.667-9.683 10.573-9.683 5.55 0 9.864 3.957 9.864 9.242 0 5.515-3.477 9.952-8.304 9.952-1.621 0-3.144-0.84-3.666-1.837l-0.997 3.805c-0.362 1.39-1.336 3.133-1.99 4.194 1.499 0.464 3.090 0.714 4.739 0.714 8.835 0 16-7.163 16-16s-7.165-16-16-16z"></path>
</symbol>
<symbol id="icon-icon-twitter" viewBox="0 0 37 32">
<path  d="M36.741 4.972c-1.22 0.556-2.636 0.96-4.12 1.141l-0.070 0.007c1.509-0.913 2.643-2.316 3.192-3.984l0.015-0.052c-1.334 0.805-2.886 1.42-4.539 1.755l-0.094 0.016c-1.332-1.42-3.22-2.304-5.315-2.304-0.003 0-0.007 0-0.010 0h0.001c-4.709 0-8.169 4.395-7.106 8.956-6.077-0.313-11.422-3.201-15.005-7.584l-0.029-0.037c-0.62 1.051-0.987 2.316-0.987 3.666 0 2.521 1.277 4.743 3.219 6.056l0.026 0.016c-1.219-0.038-2.352-0.371-3.341-0.929l0.036 0.019c-0.080 3.38 2.341 6.542 5.849 7.244-0.575 0.162-1.234 0.256-1.916 0.256-0.487 0-0.964-0.048-1.425-0.139l0.046 0.008c0.959 2.922 3.636 5.006 6.809 5.067l0.007 0c-2.467 1.949-5.622 3.127-9.052 3.127-0.616 0-1.223-0.038-1.819-0.112l0.071 0.007c3.155 2.055 7.016 3.276 11.162 3.276 0.007 0 0.014 0 0.021 0h-0.001c13.543 0 21.195-11.438 20.732-21.698 1.433-1.044 2.641-2.296 3.607-3.724l0.033-0.052z"></path>
</symbol>
<symbol id="icon-icon-youtube" viewBox="0 0 34 32">
<path  d="M16.533 0c-8.835 0-16 7.165-16 16 0 8.837 7.165 16 16 16 8.837 0 16-7.163 16-16 0-8.835-7.163-16-16-16zM22.454 22.523c-2.803 0.192-9.045 0.192-11.843 0-3.035-0.208-3.389-1.694-3.411-6.523 0.022-4.838 0.379-6.315 3.411-6.523 2.798-0.192 9.042-0.192 11.843 0 3.037 0.208 3.389 1.694 3.413 6.523-0.024 4.838-0.381 6.315-3.413 6.523zM13.867 12.877l6.555 3.118-6.555 3.128v-6.246z"></path>
</symbol>
</defs>
</svg>
