<svg width="322" height="766" viewBox="0 0 322 766" fill="none" xmlns="http://www.w3.org/2000/svg">
<g clip-path="url(#clip0_8_439)">
<g clip-path="url(#clip1_8_439)">
<path d="M461.607 594.549C494.029 561.5 494.029 507.916 461.607 474.866C429.184 441.816 376.618 441.816 344.196 474.866L200.394 621.451C167.972 654.5 167.972 708.084 200.394 741.134C232.816 774.184 285.383 774.184 317.805 741.134L461.607 594.549Z" fill="#FFF0EC"/>
</g>
</g>
<g clip-path="url(#clip2_8_439)">
<path d="M433.937 112.451C483.198 63.1906 483.198 -16.6768 433.937 -65.9376C384.677 -115.198 304.809 -115.198 255.548 -65.9376L37.0628 152.548C-12.1979 201.809 -12.1979 281.676 37.0629 330.937C86.3236 380.198 166.191 380.198 215.452 330.937L433.937 112.451Z" fill="#FFF0EC"/>
</g>
<defs>
<clipPath id="clip0_8_439">
<rect width="147" height="316" fill="white" transform="translate(176 450)"/>
</clipPath>
<clipPath id="clip1_8_439">
<rect width="310" height="316" fill="white" transform="translate(176 450)"/>
</clipPath>
<clipPath id="clip2_8_439">
<rect width="471" height="471" fill="white" transform="translate(0 -103)"/>
</clipPath>
</defs>
</svg>
